<svg id="Layer_1" data-name="Layer 1" xmlns="http://www.w3.org/2000/svg" viewBox="0 0 537.03 114.79"><defs><style>.cls-1{fill:#4a4b49;}</style></defs><path class="cls-1" d="M136.31,106.7a6.31,6.31,0,0,0,2.43-4.23c.36-3,.36-14,.36-18.27,0-1-.72-2.61-1.35-2.79-.9-.35-1.89-.81-3-1.16-1.26-.45-2.16-1.17-2.16-2,0-.54,1.08-1.44,2.25-1.44,1.53,0,2.79.09,4.32,0s5.76-.27,6.39-.27c.36,0,1,1.17,1,2.16,0,3.86-.09,23.21.09,27.17.09,3.15,1.26,3.42,1.44,3.42.63,0,3.68-.45,4.58-.54.18,0,.72,1.16.72,1.52a2.37,2.37,0,0,1-1.52,2.43A65.74,65.74,0,0,0,144.5,114a19.88,19.88,0,0,1-3.87.63c-.36,0-.9-.9-1-1.53s-.18-3-.27-4.13c0-.09-.45-.63-.81-.36-4.32,3.14-8.46,5.84-14,5.84a10.46,10.46,0,0,1-7.1-3.06,8.2,8.2,0,0,1-2.07-5.21V84.38c0-.81-.81-2.61-3.42-4-1-.53-1.89-1.16-1.89-2.06,0-1.26,2.43-1.53,2.79-1.53,2,0,8.28-.45,8.91-.45s.9,1,.9,2.88c0,3.86,0,15,.09,21.32.09,4.86,1.07,5.85,2.24,6.93a10,10,0,0,0,4.77,1.17A13.81,13.81,0,0,0,136.31,106.7Z"/><path class="cls-1" d="M176.45,76.47l2.88.81a4.83,4.83,0,0,1,1.53,1.8A41.35,41.35,0,0,1,181,84c0,.63-.72,2.61-2,2.61-.36,0-1.17-.81-2-2.43-2-3.68-5-5.21-6.84-5.21a5.52,5.52,0,0,0-5.22,5.3c0,4.41,3.87,5.58,8.55,8s8.64,5.22,8.64,10.53a10.72,10.72,0,0,1-6.75,9.89,18.32,18.32,0,0,1-7.74,1.71c-5.49,0-8.19-1.26-9.18-2.25s-1.8-4.85-1.8-6.47c0-2.34.63-3,1.62-3,.54,0,1.17.63,2.34,2.43,2.61,4,5.76,5.75,8.19,5.75,4.05,0,6.3-2.69,6.3-5.57,0-1.71-1-3.6-3.24-5-2.43-1.44-4.41-2.43-7.11-4-3-1.71-6.48-4.5-6.48-9.81A10.18,10.18,0,0,1,163,78.09a17.77,17.77,0,0,1,7.83-2.34A18.48,18.48,0,0,1,176.45,76.47Z"/><path class="cls-1" d="M216.94,81.14a11.39,11.39,0,0,1,1.52,6.3c0,1-1.52,2.7-2.42,2.7-.63,0-17.73.27-19.35.27a2.48,2.48,0,0,0-1.44,1,7.86,7.86,0,0,0-.45,2.79,13.74,13.74,0,0,0,13.77,14.13c3.51,0,7.38-2.25,9.08-3.42.36-.27,1.08.18,1.08,1.17a4.29,4.29,0,0,1-1.17,2.79,18,18,0,0,1-12.86,5.57c-11.25,0-17.64-7.64-17.64-18.62,0-7.29,3.33-13.5,8.73-17a19.24,19.24,0,0,1,10.53-3.06C210.64,75.75,214.78,77.64,216.94,81.14Zm-21.06,5.13a1,1,0,0,0,.54.9c1,.09,4,.18,6.57.18,3.42,0,7.56-.18,7.56-3.24,0-2.7-2.16-5.12-6.93-5.12C201.37,79,197.05,81.77,195.88,86.27Z"/><path class="cls-1" d="M247.91,106.7a6.31,6.31,0,0,0,2.43-4.23c.36-3,.36-14,.36-18.27,0-1-.72-2.61-1.35-2.79-.9-.35-1.89-.81-3-1.16-1.26-.45-2.16-1.17-2.16-2,0-.54,1.08-1.44,2.25-1.44,1.53,0,2.79.09,4.32,0s5.76-.27,6.39-.27c.36,0,1,1.17,1,2.16,0,3.86-.09,23.21.09,27.17.09,3.15,1.26,3.42,1.44,3.42.63,0,3.69-.45,4.59-.54.18,0,.72,1.16.72,1.52a2.37,2.37,0,0,1-1.53,2.43A65.74,65.74,0,0,0,256.1,114a19.88,19.88,0,0,1-3.87.63c-.36,0-.9-.9-1-1.53s-.18-3-.27-4.13c0-.09-.45-.63-.81-.36-4.32,3.14-8.46,5.84-14,5.84a10.47,10.47,0,0,1-7.11-3.06,8.2,8.2,0,0,1-2.07-5.21V84.38c0-.81-.81-2.61-3.42-4-1-.53-1.89-1.16-1.89-2.06,0-1.26,2.43-1.53,2.79-1.53,2,0,8.28-.45,8.91-.45s.9,1,.9,2.88c0,3.86,0,15,.09,21.32.09,4.86,1.08,5.85,2.25,6.93a10,10,0,0,0,4.76,1.17A13.81,13.81,0,0,0,247.91,106.7Z"/><path class="cls-1" d="M270.32,79.17a38.36,38.36,0,0,0,6.92-3.51c.63-.45.81-.54,1-.54a2.05,2.05,0,0,1,1.44,1v3.78a.56.56,0,0,0,.9.45c2.52-1.71,7.56-4.59,12.42-4.59a10.71,10.71,0,0,1,9.45,4.85,1.21,1.21,0,0,0,1.16.28A39.58,39.58,0,0,1,310.26,77a14.12,14.12,0,0,1,6.21-1.26c7.92,0,10.89,7.37,11.16,13.58.27,5.67.63,15.57.63,17.82,0,1.53,1.89,2.6,3.42,3.14,1.17.45,2.06.9,2.06,1.8,0,1.08-1.16,1.44-2,1.44-2.07,0-4.86-.18-6.93-.18s-4.59.18-6.66.18c-1.44,0-2.52-.81-2.52-1.53,0-.36.45-1.35,2.16-1.79,2.25-.64,2.88-2,2.88-4,0-4.32-.09-11.34-.09-15.21-.09-3.51-.36-5-1.44-6.66s-3.24-3-6.57-3a15.21,15.21,0,0,0-7.92,2.25,5.08,5.08,0,0,0-.9,2.79c0,14.13.09,17.46.27,19.53a4,4,0,0,0,3.15,3.87c1.8.62,2.34,1.16,2.34,2.15s-1.08,1.53-2.16,1.53c-2.34,0-5.21-.18-7.55-.18-2,0-4.41.18-6.39.18-1.44,0-2.7-.9-2.7-1.62s.81-1.26,2.25-1.8c2.43-.9,3.51-1.43,3.6-4.94l.27-17.28a9,9,0,0,0-1.35-4c-1.26-1.62-3.42-2.79-6.93-2.79a13,13,0,0,0-7.74,2.43,10.75,10.75,0,0,0-1,2.34c0,15.84,0,17.91.18,20.25.18,2.52,1.35,3.15,3,4s2,1.35,2,2c0,.9-.9,1.53-2.25,1.53-2.16,0-5.13-.27-7.83-.27-2.06,0-4,.45-6.11.45-1.53,0-2.52-.72-2.52-1.53s.81-1.35,2.16-1.88c3.51-1.44,3.87-2.16,4-5,.18-3.33.36-10.62.36-18.9a4.19,4.19,0,0,0-2-3.24c-1.62-1.26-2-1.62-2-1.89A3.06,3.06,0,0,1,270.32,79.17Z"/><path class="cls-1" d="M392.81,94.55c0,6.84-2.79,11.7-5.85,14.49a19.62,19.62,0,0,1-13.59,5.39,20.49,20.49,0,0,1-14.21-5.84,19.18,19.18,0,0,1-5.31-13.32,19.42,19.42,0,0,1,7.2-14.93,20.79,20.79,0,0,1,12.59-4.59C386.06,75.75,392.72,86.27,392.81,94.55ZM366.17,82c-.9,1-3.68,5-3.68,11.88,0,5,1.7,11.25,5.39,14.4a11.56,11.56,0,0,0,6.84,2.42,9.45,9.45,0,0,0,6.84-3.5c1.89-2.43,2.43-6.84,2.43-12.06,0-7.65-4.05-15.65-11.7-15.65A9.92,9.92,0,0,0,366.17,82Z"/><path class="cls-1" d="M397.57,81.68c-.81-.18-1.53-.44-1.53-1.26,0-1.25,1.17-1.88,4.86-3.5.35-.09.8-1,.8-1.17a29.13,29.13,0,0,1,3.15-12.51,24.36,24.36,0,0,1,6.93-7.74c2.88-2.07,7.11-3.69,10-3.69,3.42,0,6.66.9,8,2.79a5.11,5.11,0,0,1,.63,2.43,3,3,0,0,1-.45,1.44,5.2,5.2,0,0,1-3.6,2.52,5.13,5.13,0,0,1-2.34-.9c-1.26-1-4.32-3.33-6.48-3.33-3.42,0-5.58,2.34-6.57,5.31-1.17,3.33-1.62,8.46-1.62,12.42,0,1.8.27,2.34.72,2.34,2.88,0,9.72-.27,10.35-.27,1.08,0,1.26,3,1.26,3.78,0,.18-1,1.7-1.53,1.7L409.8,82c-.45,0-.81.45-.81,2.7,0,7.65.27,12.69.45,19.8.09,4.23,1.08,4.86,5.76,5.58,1.53.26,2.7,1.16,2.7,1.79,0,1.08-1.17,1.8-3,1.8-1.17,0-4.5-.27-9.54-.27-1,0-4.14.27-6.65.27-1.89,0-2.88-.63-2.88-1.62,0-.81.9-1.26,2.25-1.79,2.34-1,3.32-2.07,3.42-3.69.08-1.44.26-8.37.26-23a1.68,1.68,0,0,0-.71-1.17Z"/><path class="cls-1" d="M466.6,79.17c1.79,1.61,3,5.84,3,7.73,0,3.42-.36,7.2-.36,17.28,0,3,1.53,4.41,3.24,4.41a9.66,9.66,0,0,0,3.06-.81c.36-.18.81.72.81,1.43a10.28,10.28,0,0,1-.81,2.34,8,8,0,0,1-6.57,3.24c-2.33,0-5.21-.9-6.38-5.58,0-.08-.72-.53-.9-.44a68.51,68.51,0,0,1-6.93,4.31,9.61,9.61,0,0,1-4.77,1.35c-2.7,0-8.55-3.33-8.55-10.61a6.78,6.78,0,0,1,1.35-4.32,8.4,8.4,0,0,1,3.6-2.61c9.09-2.16,13.32-3.24,15.3-4.32a1.73,1.73,0,0,0,1-1.35V87.8a6.44,6.44,0,0,0-.27-2.34c-1.26-3.51-5.13-5-7.92-5a7.48,7.48,0,0,0-4.05,1.17c-.36.45-.72,1.71-.9,4.41a2.91,2.91,0,0,1-.81,2,6.66,6.66,0,0,1-2.61.72,14,14,0,0,1-3.78-.45,2.39,2.39,0,0,1-1.08-1.44c0-1.53,2.61-4.32,6.48-7,3.42-2.25,7.56-4,10.62-4A10.89,10.89,0,0,1,466.6,79.17Zm-5,26.18a8.94,8.94,0,0,0,.72-2.7l.09-5.76c0-.36-.45-.54-.72-.54a89.19,89.19,0,0,0-9.63,2.34c-2.52.9-3.33,1.89-3.33,4.14a6,6,0,0,0,6,5.58A11.11,11.11,0,0,0,461.65,105.35Z"/><path class="cls-1" d="M482.23,79.08c1.44-.81,4.23-2.07,6.12-3.06a6.87,6.87,0,0,1,2.61-.9c.36,0,1.08,1,1.08,1.26l.18,4.4c0,.28.63.63.9.28,2.6-2.88,6.2-5.31,9.71-5.31,2.61,0,4.95,1.8,4.95,2.79,0,2-2.34,4.49-3.6,5.48a2.41,2.41,0,0,1-1.44.72,3.61,3.61,0,0,1-2.07-.9,6,6,0,0,0-3.24-1.08,4.82,4.82,0,0,0-4.13,2.07,4.54,4.54,0,0,0-.81,2.07c0,.9-.09,13.86.18,17,.27,4.23,1,5.13,5,6.2,2.07.54,3.24,1.26,3.24,2.07s-1.17,1.53-2.25,1.53c-2.79,0-7.37-.36-10-.36-3.15,0-4.77.27-7.29.27-1.62,0-2.43-1-2.43-1.44,0-1,1-1.53,2.07-1.89,3.51-1.25,3.78-2.6,3.87-4.67.18-4.05.27-15.12.27-19.89,0-.54-.09-1.17-2.25-2.7-1-.72-2-1.53-2-2.07A2.18,2.18,0,0,1,482.23,79.08Z"/><path class="cls-1" d="M535.86,76.47c.63,0,1.08,1,1.17,1.53a25.52,25.52,0,0,1-.09,2.88c-.27,1-1.08,1.16-2.07,1.16-3.33,0-8.1.09-10.17.09-.18,0-.63.36-.63,1.35l-.27,16.38c-.09,4,.27,5.49,1.35,6.75a8.27,8.27,0,0,0,4.86,2,14.7,14.7,0,0,0,4.14-.81,13.53,13.53,0,0,1,2-.54c.36,0,.81.63.81,1.35,0,1-.72,2.06-2.16,3.14a16.5,16.5,0,0,1-9.18,2.79,10.12,10.12,0,0,1-7.92-4.13c-.72-1.08-1.26-3.15-1.26-6.39,0-6.3.45-11.79.45-20.34,0-1-.27-1.08-2.79-1.44a4,4,0,0,1-2.69-2.6c0-.36,1.08-1.17,1.88-1.89,1.53-1.26,4.86-3.33,6.48-5.4a5.92,5.92,0,0,1,3.6-2.34c.36,0,.81.9.81,1.35,0,1-.09,3.87-.09,4.41,0,.36.09,1.08.72,1.08C525.78,76.83,533.79,76.47,535.86,76.47Z"/><path class="cls-1" d="M107.88,110.29c-1.53-.54-3.42-1.61-3.42-3.14,0-2.25-.36-12.15-.63-17.82-.27-6.21-3.24-13.58-11.16-13.58A14.12,14.12,0,0,0,86.46,77a39.45,39.45,0,0,0-6.65,3.87,1.23,1.23,0,0,1-1.17-.28,10.71,10.71,0,0,0-9.45-4.85c-4.86,0-9.9,2.88-12.42,4.59a.56.56,0,0,1-.9-.45c-.09-.9.14-2.61,0-3.6-.09-.63-1.17-1.17-1.62-1.17-1.35,0-5.22,1.26-11.43,2.61a3.3,3.3,0,0,0-2,2.43c0,1,.72,1.61,1.26,1.52A37.48,37.48,0,0,1,47,81.14c.72,0,1.57.65,1.76,3.55,0,0,.14,1.77.14,8.23-.06,5.48-.19,10-.32,12.43-.09,2.88-.45,3.6-4,5-1.35.53-2.16,1.07-2.16,1.88s1,1.53,2.52,1.53c2.07,0,4-.45,6.12-.45,2.7,0,5.66.27,7.82.27,1.35,0,2.25-.63,2.25-1.53,0-.63-.27-1.08-2-2s-2.79-1.43-3-4c-.18-2.34-.18-4.41-.18-20.25a10.75,10.75,0,0,1,1-2.34,13,13,0,0,1,7.74-2.43c3.51,0,5.67,1.17,6.93,2.79a9,9,0,0,1,1.35,4l-.27,17.28c-.09,3.51-1.17,4-3.6,4.94-1.44.54-2.25,1.08-2.25,1.8s1.26,1.62,2.7,1.62c2,0,4.41-.18,6.39-.18,2.34,0,5.22.18,7.55.18,1.08,0,2.16-.54,2.16-1.53s-.54-1.53-2.34-2.15A4,4,0,0,1,80.26,106c-.18-2.07-.27-5.4-.27-19.53a5.08,5.08,0,0,1,.9-2.79,15.16,15.16,0,0,1,7.91-2.25c3.33,0,5.49,1.35,6.57,3s1.35,3.15,1.44,6.66c0,3.87.09,10.89.09,15.21,0,2-.63,3.32-2.88,4-1.71.44-2.16,1.43-2.16,1.79,0,.72,1.08,1.53,2.52,1.53,2.07,0,4.59-.18,6.66-.18s4.86.18,6.93.18c.81,0,2-.36,2-1.44C110,111.19,109.05,110.74,107.88,110.29Z"/><path class="cls-1" d="M28,23.84c.36.09.72-.45.72-1s-.18-11.51-.18-13.4c-.27-3-.63-3.24-4.59-4.23a2.29,2.29,0,0,1-1.71-1.89c0-.27.36-.72,1.89-1.17A111.62,111.62,0,0,1,35.18,0c.9,0,1.17,1.35,1.17,5.49,0,5.67-.36,18-.36,25.28,0,18.08.27,19.61.36,22.22.09,2.88.9,3.6,1.62,3.6a37.48,37.48,0,0,0,5-.54c.54-.09,1.26.54,1.26,1.53a3.3,3.3,0,0,1-2,2.43C36,61.36,32.12,62.62,30.77,62.62c-.45,0-1.53-.54-1.62-1.17-.18-1-.18-2.79-.27-3.69,0-.18-.45-.36-.72-.18-4.14,2.34-8.1,4.5-11.07,4.5C6.93,62.08,0,54.61,0,44.45,0,34.73,5.58,29.87,10,27a26.37,26.37,0,0,1,12.5-3.6A25.26,25.26,0,0,1,28,23.84ZM12.6,29.78c-2.43,2.16-4.23,6.12-4.23,11.7,0,6.92,4.41,15.2,12.41,15.2,2.7,0,6.21-1.44,7-2.25a4.72,4.72,0,0,0,.9-2.25c.09-5.85,0-11.06,0-16.91A10.58,10.58,0,0,0,28,31.76a11,11,0,0,0-9.27-4.5A9.2,9.2,0,0,0,12.6,29.78Z"/><path class="cls-1" d="M74.54,26.81c1.8,1.62,3.06,5.85,3.06,7.74,0,3.42-.36,7.2-.36,17.27,0,3,1.53,4.41,3.24,4.41a9.6,9.6,0,0,0,3-.81c.36-.18.81.72.81,1.44a10.28,10.28,0,0,1-.81,2.34A7.93,7.93,0,0,1,77,62.44c-2.34,0-5.22-.9-6.39-5.58,0-.09-.72-.54-.9-.45a68.6,68.6,0,0,1-6.93,4.32A9.61,9.61,0,0,1,58,62.08c-2.7,0-8.54-3.33-8.54-10.62a6.78,6.78,0,0,1,1.35-4.32,8.48,8.48,0,0,1,3.59-2.61c9.09-2.15,13.32-3.23,15.3-4.31a1.73,1.73,0,0,0,1-1.35V35.45a6.44,6.44,0,0,0-.27-2.34c-1.26-3.51-5.13-5-7.92-5a7.39,7.39,0,0,0-4,1.17c-.36.45-.72,1.71-.9,4.41a2.91,2.91,0,0,1-.81,2,6.66,6.66,0,0,1-2.61.72,13.91,13.91,0,0,1-3.77-.45,2.39,2.39,0,0,1-1.08-1.44c0-1.53,2.61-4.32,6.47-7,3.42-2.25,7.56-4.05,10.62-4.05A10.89,10.89,0,0,1,74.54,26.81ZM69.59,53a8.94,8.94,0,0,0,.72-2.7l.09-5.76c0-.36-.45-.54-.72-.54a91.62,91.62,0,0,0-9.63,2.34c-2.52.9-3.33,1.89-3.33,4.14a6,6,0,0,0,6,5.58A11.11,11.11,0,0,0,69.59,53Z"/><path class="cls-1" d="M112.14,24.11c.63,0,1.08,1,1.17,1.53a25.42,25.42,0,0,1-.09,2.88c-.27,1-1.08,1.17-2.07,1.17-3.33,0-8.1.09-10.17.09-.18,0-.63.36-.63,1.35l-.27,16.37c-.09,4,.27,5.49,1.35,6.75a8.27,8.27,0,0,0,4.86,2,14.7,14.7,0,0,0,4.14-.81,13.53,13.53,0,0,1,2-.54c.36,0,.81.63.81,1.35,0,1-.72,2.07-2.16,3.15a16.5,16.5,0,0,1-9.18,2.79A10.11,10.11,0,0,1,94,58c-.72-1.08-1.26-3.15-1.26-6.39,0-6.3.45-11.78.45-20.33,0-1-.27-1.08-2.79-1.44a4.06,4.06,0,0,1-2.7-2.61c0-.36,1.08-1.17,1.89-1.89C91.08,24.11,94.41,22,96,20a5.92,5.92,0,0,1,3.6-2.34c.36,0,.81.9.81,1.35,0,1-.09,3.87-.09,4.41,0,.36.09,1.08.72,1.08C102.06,24.47,110.07,24.11,112.14,24.11Z"/><path class="cls-1" d="M147.85,24.11a1.2,1.2,0,0,1,.9.36,2.06,2.06,0,0,1,.54,1.53l-4.86,7.11c-3.33,5-11.34,18.26-13.5,22.31,0,0-.18.81.09,1,1.62,1.26,4.95,1.35,9.18,1.35,1.17,0,3.87-.9,7.92-5.22,1.26-1.35,2.33-2.34,3.32-2.34.45,0,1.08,1.35.81,2.16-.63,1.71-1.53,5-2.42,7.29a3.7,3.7,0,0,1-1.53,1.62c-6.93,0-8.82-.27-15.75-.27-4.14,0-10.08.45-11.16.45-.81,0-1.53-1.26-1.53-1.8s1.71-3.15,3.24-5.31C125,51.64,134.62,36,138.49,29.15a.59.59,0,0,0-.18-.9c-1.17-.36-3.15-.54-9.9-.45-2.25,0-3.69,1.44-6.3,4.59a4.29,4.29,0,0,1-2,1.53c-.72,0-1.16-.9-1.16-1.53,0-1.35.89-3.15,1.34-4.59a21.74,21.74,0,0,0,1.08-3.69,2.51,2.51,0,0,1,1.35-1.62c.36-.18.54-.09.9.09a6.2,6.2,0,0,0,4.5,1.62c1,.09,5,.36,10.08.27C142.27,24.38,146.68,24.11,147.85,24.11Z"/></svg>