<svg id="Layer_1" data-name="Layer 1" xmlns="http://www.w3.org/2000/svg" viewBox="0 0 35.22 35.22"><defs><style>.cls-1{fill:#818180;}</style></defs><path d="M33.59,7.06A8.44,8.44,0,0,0,27.2,1.27a23.87,23.87,0,0,0-5-.36c-1.53-.06-3.07,0-4.6,0h0c-2,0-4.07,0-6.11,0A14.62,14.62,0,0,0,8,1.27a8.48,8.48,0,0,0-6.35,5.5,15.49,15.49,0,0,0-.77,5.44c0,3.86,0,7.73.09,11.6a18.28,18.28,0,0,0,.28,3,8.6,8.6,0,0,0,2.39,4.62,9.31,9.31,0,0,0,5.87,2.62,37.63,37.63,0,0,0,3.83.18c3.41,0,6.82,0,10.23-.08a14.48,14.48,0,0,0,4.65-.72A8.33,8.33,0,0,0,33,29.37a12.38,12.38,0,0,0,1.2-5.31c.08-1.52.11-3,.09-4.55,0-3.05-.12-6.1-.17-9.14A10.61,10.61,0,0,0,33.59,7.06ZM31.05,26.37a5.73,5.73,0,0,1-4,4.45,13.91,13.91,0,0,1-3.68.46c-1.87,0-3.75,0-5.63,0s-3.91,0-5.87-.07a13.67,13.67,0,0,1-3.59-.43,5.64,5.64,0,0,1-4.08-4.32A11.8,11.8,0,0,1,3.89,24c-.05-3.9-.12-7.79-.08-11.69a12,12,0,0,1,.7-4.8A5.52,5.52,0,0,1,8.58,4.13a20.6,20.6,0,0,1,3.68-.38c1.77-.07,3.55,0,5.32,0s3.35,0,5,0a23,23,0,0,1,4.07.4,5.35,5.35,0,0,1,4.26,4.15,16.69,16.69,0,0,1,.39,3.54q.12,4.7.1,9.39A26.16,26.16,0,0,1,31.05,26.37Z"/><path d="M26.55,6.63a2,2,0,0,0-2,2,1.91,1.91,0,0,0,1.95,1.9,2,2,0,0,0,2-1.89A2.05,2.05,0,0,0,26.55,6.63Z"/><path d="M17.64,9a8.55,8.55,0,1,0,8.51,8.56A8.5,8.5,0,0,0,17.64,9Zm0,14.19a5.64,5.64,0,1,1,5.62-5.64A5.6,5.6,0,0,1,17.63,23.18Z"/></svg>