<svg id="Layer_1" data-name="Layer 1" xmlns="http://www.w3.org/2000/svg" viewBox="0 0 151.1 77"><defs><style>.cls-1{fill:#404041;}</style></defs><path class="cls-1" d="M46.05,39.2a1.49,1.49,0,0,0,.56-1c.09-.7.09-3.25.09-4.23,0-.24-.17-.61-.32-.65s-.43-.19-.69-.27-.5-.27-.5-.46.25-.34.52-.34.65,0,1,0l1.48-.06c.08,0,.23.27.23.5,0,.9,0,5.38,0,6.29,0,.73.29.79.34.79s.85-.1,1.06-.12c0,0,.16.27.16.35a.54.54,0,0,1-.35.56,14.1,14.1,0,0,0-1.7.31,5.61,5.61,0,0,1-.9.14c-.08,0-.21-.21-.23-.35s0-.7-.06-1c0,0-.11-.15-.19-.08A5.46,5.46,0,0,1,43.33,41a2.44,2.44,0,0,1-1.65-.71,2,2,0,0,1-.48-1.21V34c0-.19-.18-.61-.79-.93-.23-.12-.43-.27-.43-.48s.56-.35.64-.35c.46,0,1.92-.1,2.06-.1s.21.23.21.66c0,.9,0,3.48,0,4.94,0,1.12.25,1.35.52,1.6a2.25,2.25,0,0,0,1.11.27A3.22,3.22,0,0,0,46.05,39.2Z"/><path class="cls-1" d="M55.34,32.2l.67.18a1.1,1.1,0,0,1,.35.42,8.69,8.69,0,0,1,0,1.14c0,.15-.17.6-.47.6-.08,0-.27-.18-.46-.56a2.06,2.06,0,0,0-1.58-1.2A1.26,1.26,0,0,0,52.68,34c0,1,.89,1.29,2,1.85s2,1.21,2,2.44a2.49,2.49,0,0,1-1.56,2.29,4.33,4.33,0,0,1-1.8.4,3.12,3.12,0,0,1-2.12-.52,3.16,3.16,0,0,1-.42-1.5c0-.54.15-.7.38-.7s.27.15.54.57a2.51,2.51,0,0,0,1.89,1.33A1.33,1.33,0,0,0,55,38.87a1.41,1.41,0,0,0-.75-1.16c-.56-.33-1-.56-1.64-.92a2.57,2.57,0,0,1-1.5-2.28,2.32,2.32,0,0,1,1.09-1.94,3.84,3.84,0,0,1,3.11-.37Z"/><path class="cls-1" d="M64.72,33.28a2.66,2.66,0,0,1,.35,1.46c0,.23-.35.62-.56.62L60,35.42a.57.57,0,0,0-.33.24,1.72,1.72,0,0,0-.11.64,3.18,3.18,0,0,0,3.09,3.27h.1a4.22,4.22,0,0,0,2.1-.79c.09-.06.25,0,.25.27a1,1,0,0,1-.27.65,4.19,4.19,0,0,1-3,1.29c-2.6,0-4.08-1.77-4.08-4.31a4.6,4.6,0,0,1,2-3.94A4.51,4.51,0,0,1,62.26,32,2.85,2.85,0,0,1,64.72,33.28Zm-4.88,1.19a.23.23,0,0,0,.13.2c.23,0,.92,0,1.52,0,.79,0,1.75,0,1.75-.75s-.5-1.19-1.61-1.19A2.29,2.29,0,0,0,59.84,34.47Z"/><path class="cls-1" d="M71.89,39.2a1.49,1.49,0,0,0,.56-1c.08-.7.08-3.25.08-4.23,0-.24-.16-.61-.31-.65s-.44-.19-.69-.27-.5-.27-.5-.46.25-.34.52-.34.64,0,1,0L74,32.21c.08,0,.23.27.23.5,0,.9,0,5.38,0,6.29,0,.73.29.79.33.79s.86-.1,1.07-.12c0,0,.16.27.16.35a.54.54,0,0,1-.35.56,14.63,14.63,0,0,0-1.71.31,5.32,5.32,0,0,1-.89.14c-.08,0-.21-.21-.23-.35s0-.7-.07-1c0,0-.1-.15-.18-.08A5.46,5.46,0,0,1,69.17,41a2.44,2.44,0,0,1-1.65-.71A1.86,1.86,0,0,1,67,39.07V34c0-.19-.19-.61-.79-.93-.23-.12-.44-.27-.44-.48s.56-.35.65-.35c.46,0,1.91-.1,2.06-.1s.21.23.21.66c0,.9,0,3.48,0,4.94,0,1.12.25,1.35.52,1.6a2.24,2.24,0,0,0,1.1.27A3.23,3.23,0,0,0,71.89,39.2Z"/><path class="cls-1" d="M77.08,32.82a8.9,8.9,0,0,0,1.6-.81c.14-.11.19-.13.23-.13a.48.48,0,0,1,.33.24V33a.13.13,0,0,0,.13.13.11.11,0,0,0,.08,0A5.74,5.74,0,0,1,82.33,32a2.5,2.5,0,0,1,2.19,1.12.26.26,0,0,0,.26.07,9.53,9.53,0,0,1,1.54-.9A3.13,3.13,0,0,1,87.76,32c1.84,0,2.52,1.7,2.59,3.14s.14,3.61.14,4.13c0,.35.44.6.79.72s.48.21.48.42-.27.33-.46.33c-.48,0-1.13,0-1.61,0s-1.06,0-1.54,0-.58-.18-.58-.35.1-.31.5-.41a.83.83,0,0,0,.66-.93c0-1,0-2.63,0-3.52A2.61,2.61,0,0,0,88.38,34a1.71,1.71,0,0,0-1.52-.7,3.47,3.47,0,0,0-1.83.52,1.1,1.1,0,0,0-.21.65c0,3.27,0,4,.06,4.52a.94.94,0,0,0,.73.9c.42.14.54.26.54.49s-.25.36-.5.36c-.54,0-1.21,0-1.75,0s-1,0-1.48,0-.62-.21-.62-.38.19-.29.52-.41c.56-.21.81-.33.83-1.15l.06-4a1.91,1.91,0,0,0-.31-.92,1.88,1.88,0,0,0-1.6-.65,3,3,0,0,0-1.79.56,2.61,2.61,0,0,0-.24.54c0,3.67,0,4.15,0,4.69s.31.73.69.93.46.31.46.46-.2.36-.52.36c-.5,0-1.19-.07-1.81-.07s-.93.11-1.41.11-.59-.17-.59-.36.19-.31.5-.43c.81-.34.9-.5.93-1.16s.08-2.46.08-4.38a1,1,0,0,0-.46-.75c-.38-.29-.46-.37-.46-.43A.69.69,0,0,1,77.08,32.82Z"/><path class="cls-1" d="M104.39,36.38A4.46,4.46,0,0,1,103,39.74,4.53,4.53,0,0,1,99.89,41a4.76,4.76,0,0,1-3.3-1.35,4.41,4.41,0,0,1-1.22-3.08A4.52,4.52,0,0,1,97,33.09,4.86,4.86,0,0,1,100,32,4.45,4.45,0,0,1,104.39,36.38Zm-6.17-2.9a4.22,4.22,0,0,0-.85,2.75,4.6,4.6,0,0,0,1.25,3.33,2.64,2.64,0,0,0,1.58.56,2.17,2.17,0,0,0,1.58-.81,4.83,4.83,0,0,0,.56-2.79c0-1.77-.93-3.62-2.7-3.62A2.26,2.26,0,0,0,98.22,33.48Z"/><path class="cls-1" d="M105.48,33.4c-.19,0-.35-.1-.35-.29s.27-.43,1.12-.81c.08,0,.19-.23.19-.27a6.66,6.66,0,0,1,.73-2.9,5.83,5.83,0,0,1,1.6-1.79,4.59,4.59,0,0,1,2.32-.85,2.34,2.34,0,0,1,1.85.64,1.42,1.42,0,0,1,.15.57A.81.81,0,0,1,113,28a1.19,1.19,0,0,1-.83.58,1.06,1.06,0,0,1-.54-.21,3.25,3.25,0,0,0-1.5-.77,1.6,1.6,0,0,0-1.52,1.23,9.84,9.84,0,0,0-.38,2.88c0,.41.06.54.17.54.67,0,2.25-.06,2.39-.06s.29.69.29.87-.23.4-.35.4h-2.39c-.1,0-.19.1-.19.62,0,1.77.07,2.94.11,4.59,0,1,.25,1.12,1.33,1.29.35.06.62.27.62.41s-.27.42-.69.42c-.27,0-1-.06-2.21-.06-.23,0-1,.06-1.54.06s-.67-.15-.67-.38.21-.29.52-.41c.54-.23.77-.48.79-.85s.07-1.94.07-5.33a.41.41,0,0,0-.17-.27Z"/><path class="cls-1" d="M120.71,32.82a3,3,0,0,1,.71,1.79c0,.79-.08,1.67-.08,4,0,.7.35,1,.75,1a2.25,2.25,0,0,0,.71-.18c.08-.05.19.16.19.33a2.67,2.67,0,0,1-.19.54,1.86,1.86,0,0,1-1.52.75,1.45,1.45,0,0,1-1.48-1.29s-.17-.13-.21-.11a14.88,14.88,0,0,1-1.61,1,2.12,2.12,0,0,1-1.1.31,2.36,2.36,0,0,1-2-2.45,1.57,1.57,0,0,1,.32-1,2,2,0,0,1,.83-.61,19.55,19.55,0,0,0,3.54-1,.38.38,0,0,0,.23-.31v-.79a1.63,1.63,0,0,0-.06-.54,2,2,0,0,0-1.84-1.16,1.7,1.7,0,0,0-.92.27,2.26,2.26,0,0,0-.21,1,.66.66,0,0,1-.19.46,1.43,1.43,0,0,1-.6.17,3.26,3.26,0,0,1-.88-.1.61.61,0,0,1-.25-.34c0-.35.61-1,1.5-1.62a5.1,5.1,0,0,1,2.46-.92A2.5,2.5,0,0,1,120.71,32.82Zm-1.14,6.06a2.29,2.29,0,0,0,.17-.62l0-1.34c0-.08-.11-.12-.17-.12a21.3,21.3,0,0,0-2.23.54c-.58.21-.77.44-.77,1A1.39,1.39,0,0,0,118,39.59a2.51,2.51,0,0,0,1.59-.71Z"/><path class="cls-1" d="M124,32.8c.34-.19,1-.48,1.42-.71a1.59,1.59,0,0,1,.6-.21c.08,0,.25.24.25.3l0,1c0,.07.15.15.21.07A3.33,3.33,0,0,1,128.77,32c.61,0,1.15.42,1.15.65a2.07,2.07,0,0,1-.84,1.26.47.47,0,0,1-.33.17.84.84,0,0,1-.48-.21,1.43,1.43,0,0,0-.75-.25,1.14,1.14,0,0,0-1,.48,1,1,0,0,0-.18.48c0,.21,0,3.21,0,3.94.06,1,.23,1.18,1.15,1.43.48.13.75.29.75.48s-.27.36-.52.36c-.64,0-1.7-.09-2.31-.09s-1.1.07-1.69.07c-.37,0-.56-.24-.56-.34s.23-.35.48-.44c.81-.29.87-.6.9-1.08,0-.93.06-3.5.06-4.6,0-.13,0-.27-.52-.63-.23-.16-.47-.35-.47-.48A.52.52,0,0,1,124,32.8Z"/><path class="cls-1" d="M136.36,32.2c.14,0,.25.23.27.35s0,.45,0,.67-.25.27-.48.27l-2.36,0s-.14.08-.14.31l-.06,3.79c0,.93.06,1.27.31,1.56a1.88,1.88,0,0,0,1.12.47,3.48,3.48,0,0,0,1-.19,4,4,0,0,1,.46-.13c.09,0,.19.15.19.32s-.17.47-.5.72A3.76,3.76,0,0,1,134,41a2.35,2.35,0,0,1-1.84-1,2.89,2.89,0,0,1-.29-1.48c0-1.45.11-2.72.11-4.7,0-.24-.07-.25-.65-.34a.91.91,0,0,1-.62-.6c0-.08.25-.27.43-.44a9.11,9.11,0,0,0,1.5-1.25,1.36,1.36,0,0,1,.84-.54c.08,0,.18.21.18.31s0,.9,0,1,0,.25.17.25S135.88,32.2,136.36,32.2Z"/><path class="cls-1" d="M39.47,40c-.36-.13-.79-.38-.79-.73,0-.52-.09-2.81-.15-4.13S37.78,32,36,32a3.23,3.23,0,0,0-1.44.29,9.79,9.79,0,0,0-1.54.89.26.26,0,0,1-.27-.06A2.49,2.49,0,0,0,30.51,32a5.61,5.61,0,0,0-2.87,1.06.15.15,0,0,1-.19,0,.31.31,0,0,1,0-.08c0-.21,0-.61,0-.84s-.27-.27-.38-.27c-.31,0-1.21.29-2.64.61a.75.75,0,0,0-.47.56c0,.23.17.37.29.35a7.35,7.35,0,0,1,1.14-.12c.17,0,.37.15.41.82,0,0,0,.41,0,1.9,0,1.27,0,2.32-.07,2.88s-.11.84-.93,1.16c-.31.12-.5.25-.5.44s.23.35.59.35.92-.1,1.41-.1,1.31.06,1.81.06c.32,0,.52-.15.52-.36s-.06-.25-.46-.46-.64-.33-.69-.93,0-1,0-4.68a2.38,2.38,0,0,1,.23-.55,3,3,0,0,1,1.79-.56,1.88,1.88,0,0,1,1.6.65,2,2,0,0,1,.32.92l-.07,4c0,.82-.27.93-.83,1.15-.33.12-.52.25-.52.42s.29.37.62.37,1,0,1.48,0,1.21,0,1.75,0c.25,0,.5-.12.5-.35s-.12-.36-.54-.5a.93.93,0,0,1-.71-.88c0-.48-.06-1.25-.06-4.52a1.22,1.22,0,0,1,.21-.64,3.57,3.57,0,0,1,1.83-.53,1.74,1.74,0,0,1,1.52.7,2.67,2.67,0,0,1,.34,1.54c0,.9,0,2.52,0,3.52a.84.84,0,0,1-.67.93c-.4.1-.5.33-.5.41s.25.36.58.36,1.07,0,1.54,0,1.13,0,1.61,0c.19,0,.46-.09.46-.34S39.74,40.13,39.47,40Z"/><path class="cls-1" d="M21,20c.09,0,.17-.1.17-.23s0-2.67,0-3.1C21,16,21,15.93,20,15.7a.53.53,0,0,1-.4-.44c0-.06.08-.17.44-.27a24.62,24.62,0,0,1,2.56-.5c.2,0,.27.31.27,1.27,0,1.32-.09,4.17-.09,5.86,0,4.18.07,4.54.09,5.14s.21.83.37.83a7.48,7.48,0,0,0,1.16-.12c.13,0,.29.12.29.35a.77.77,0,0,1-.46.57c-1.44.31-2.34.6-2.65.6-.11,0-.36-.13-.38-.27s0-.65-.06-.86c0,0-.11-.08-.17,0a6.36,6.36,0,0,1-2.56,1,3.86,3.86,0,0,1-4-4.08,4.55,4.55,0,0,1,2.32-4,6.12,6.12,0,0,1,2.89-.83A6,6,0,0,1,21,20Zm-3.56,1.38a3.55,3.55,0,0,0-1,2.71c0,1.6,1,3.51,2.87,3.51a3,3,0,0,0,1.62-.52,1,1,0,0,0,.21-.52c0-1.35,0-2.56,0-3.91a2.3,2.3,0,0,0-.16-.82,2.53,2.53,0,0,0-2.14-1A2.09,2.09,0,0,0,17.41,21.39Z"/><path class="cls-1" d="M31.75,20.7a3,3,0,0,1,.71,1.79c0,.79-.09,1.67-.09,4,0,.69.36,1,.75,1a2.14,2.14,0,0,0,.7-.19c.08,0,.19.17.19.34a2.67,2.67,0,0,1-.19.54,1.85,1.85,0,0,1-1.5.75,1.45,1.45,0,0,1-1.48-1.29s-.17-.13-.21-.11a14.75,14.75,0,0,1-1.6,1,2.19,2.19,0,0,1-1.11.31,2.35,2.35,0,0,1-2-2.45,1.56,1.56,0,0,1,.32-1,1.88,1.88,0,0,1,.83-.61,19.55,19.55,0,0,0,3.54-1,.4.4,0,0,0,.23-.31V22.7a1.63,1.63,0,0,0-.06-.54A1.94,1.94,0,0,0,29,21a1.68,1.68,0,0,0-.92.27,2.08,2.08,0,0,0-.21,1,.66.66,0,0,1-.19.46,1.43,1.43,0,0,1-.6.17,3.26,3.26,0,0,1-.88-.1.61.61,0,0,1-.25-.34c0-.35.61-1,1.5-1.62a5.09,5.09,0,0,1,2.46-.93A2.51,2.51,0,0,1,31.75,20.7ZM30.6,26.76a2,2,0,0,0,.17-.62l0-1.34c0-.08-.1-.12-.17-.12a21.92,21.92,0,0,0-2.23.54c-.58.21-.77.44-.77,1A1.39,1.39,0,0,0,29,27.47,2.51,2.51,0,0,0,30.6,26.76Z"/><path class="cls-1" d="M40.45,20.07c.15,0,.25.24.28.36s0,.44,0,.66-.25.28-.47.28l-2.36,0s-.15.08-.15.31l-.06,3.79c0,.93.06,1.27.31,1.56a1.89,1.89,0,0,0,1.13.46,3.14,3.14,0,0,0,1-.18,2.42,2.42,0,0,1,.46-.13c.08,0,.19.15.19.31s-.17.48-.5.73a3.76,3.76,0,0,1-2.13.65,2.36,2.36,0,0,1-1.83-1A2.89,2.89,0,0,1,36,26.44c0-1.46.11-2.73.11-4.71,0-.23-.07-.25-.65-.33a.93.93,0,0,1-.62-.6c0-.09.25-.27.43-.44a10,10,0,0,0,1.49-1.24,1.37,1.37,0,0,1,.83-.54c.08,0,.19.21.19.31s0,.9,0,1,0,.25.16.25S40,20.07,40.45,20.07Z"/><path class="cls-1" d="M48.72,20.07a.27.27,0,0,1,.21.09.49.49,0,0,1,.13.35l-1.13,1.65c-.77,1.15-2.63,4.23-3.13,5.16,0,0,0,.19,0,.23a3.88,3.88,0,0,0,2.12.32c.27,0,.9-.21,1.83-1.21.3-.31.54-.54.77-.54s.25.31.19.5c-.14.39-.35,1.15-.56,1.68a.92.92,0,0,1-.35.38c-1.61,0-2-.06-3.65-.06-1,0-2.33.1-2.58.1s-.36-.29-.36-.42A6.72,6.72,0,0,1,43,27.07c.44-.62,2.67-4.24,3.57-5.83a.14.14,0,0,0,0-.19l0,0a9.27,9.27,0,0,0-2.29-.1c-.52,0-.85.33-1.46,1.06a.89.89,0,0,1-.46.35c-.17,0-.27-.2-.27-.35a4.51,4.51,0,0,1,.31-1.06,5,5,0,0,0,.25-.86.6.6,0,0,1,.31-.37.2.2,0,0,1,.21,0,1.44,1.44,0,0,0,1,.37,21.3,21.3,0,0,0,2.34.07C47.43,20.14,48.45,20.07,48.72,20.07Z"/><path class="cls-1" d="M50.94,55.38a19.5,19.5,0,0,1-4,.37,24,24,0,0,1-5.38,0c-.36-.08-.55-.05-.59.09s.11.3.29.38c1.52.8,1.79.65,2.05.49a.63.63,0,0,1,.23-.08,2.94,2.94,0,0,0,.42,0c.34,0,.81-.09,1.18-.11l1.34-.07a13.75,13.75,0,0,0,.06,1.52c-.47,0-2.43,0-2.79-.06s-.3.09-.31.12c-.06.21.29.41.6.53.67.27.86.23,1.05.13a.6.6,0,0,1,.19-.06s1.13-.12,1.72-.14l1.55-.09h.18v1.14h-.06c-2.44.12-3,.13-3.11.12a4.53,4.53,0,0,0-1.68-.19s-.39.09-.39.3.08.17.24.22h0c.66.18.67.27.67.27v.94a.76.76,0,0,0,.35.67,1.38,1.38,0,0,0,.82.21h1c1,0,2.46-.08,3.6-.06a.51.51,0,0,0,.48-.24.43.43,0,0,0,0-.46.53.53,0,0,0-.51-.25H50a1.59,1.59,0,0,0-1,.15c-.3.31-3,.31-3.17.3h0a.54.54,0,0,1-.33,0,2.28,2.28,0,0,1,0-.37v-.87h1c.86,0,2-.07,2.76-.09a.57.57,0,0,0,.58-.3.25.25,0,0,0-.1-.28.58.58,0,0,0-.22-.08c0-.13.07-.26.11-.38s.11-.43.15-.65a1.62,1.62,0,0,1,.1-.18c.09-.14.18-.29.11-.42a.37.37,0,0,0-.3-.19c-.86,0-.86,0-.86,0a4.52,4.52,0,0,1-1.27.17c.05-.42.07-1.25.08-1.54.5,0,2.79-.09,4.94,0a.51.51,0,0,0,.54-.44.46.46,0,0,0-.43-.48h0a3.58,3.58,0,0,0-1.66,0Z"/><path class="cls-1" d="M41.68,55.26h.11A15.33,15.33,0,0,0,44.91,54a8.55,8.55,0,0,0,1.72-1.2c.27.11,1.15.46,2.08.77l.86.31h0c.46.16.77.27,1.1.37a.5.5,0,0,0,.62-.24.45.45,0,0,0-.21-.57,3.13,3.13,0,0,0-1.5-.57A8.4,8.4,0,0,1,47,52.4l.33-.29c.18-.16.32-.31.32-.31l.06,0a.39.39,0,0,0,.17-.31c0-.13-.16-.24-.43-.37a5,5,0,0,0-1.55-.51c-.22,0-.38.09-.41.22s0,.19.21.25a2.14,2.14,0,0,1,.66.5l-.07.06h0a9.62,9.62,0,0,1-2,1.72h0a11.08,11.08,0,0,1-2.84,1.51.22.22,0,0,0-.18.14.14.14,0,0,0,0,.17A.31.31,0,0,0,41.68,55.26Z"/><path class="cls-1" d="M38.32,60.49v.58c0,1,.13,1.44.36,1.44.51,0,.57-1.06.59-2.8,0-.27,0-7.83,0-8.25a1.67,1.67,0,0,1,.06-.29c.06-.26.14-.57-.46-.76A8,8,0,0,0,37.32,50c-.2,0-.42.11-.45.27s0,.22.29.29a3.82,3.82,0,0,1,.64.32,1.51,1.51,0,0,1,.47.36C38.26,51.53,38.3,58.26,38.32,60.49Z"/><path class="cls-1" d="M36.09,53.63a.94.94,0,0,1,.12-.18c.09-.13.2-.26.13-.4s-.26-.2-.71-.21-.58,0-.67.08a.63.63,0,0,1-.27.06c-1,.07-2.39.12-3,.12A5.93,5.93,0,0,0,30,52.89h0a.37.37,0,0,0-.41.29c0,.14.05.2.34.26.63.19.78.29.82.5v.14c0,.67.17,2.89.25,4.09v.14c0,.31.14.49.3.5h0c.21,0,.39-.31.51-.86h1.23l2.49-.06c.31,0,.53-.14.54-.31s0-.29-.5-.38c.07-.53.15-1.14.22-1.72C35.93,54.67,36,54,36.09,53.63Zm-1.15-.09c0,.64,0,2.21-.08,3.62h-.14a1.65,1.65,0,0,1-.43.09c-.66,0-1.78.07-2.4.07l-.07-3.57v-.06h0l.12,0C32.19,53.67,34,53.55,34.94,53.54Z"/><path class="cls-1" d="M63.16,61a2.91,2.91,0,0,0-1,0L62,61a2.88,2.88,0,0,1-1.11.31H58.66a.39.39,0,0,1-.27-.08.67.67,0,0,1,0-.2v-1.6a.6.6,0,0,1,0-.19.68.68,0,0,0-.1-.5.7.7,0,0,0-.5-.16,11.21,11.21,0,0,0-1.42,0c-.24,0-.48.15-.49.32s.13.22.38.27c.62.12.93.3.93.37v1.2a1.1,1.1,0,0,0,.43,1,1.82,1.82,0,0,0,.86.15h4a3.48,3.48,0,0,0,.79,0c.43-.16.44-.42.44-.53A.6.6,0,0,0,63.16,61Z"/><path class="cls-1" d="M64.59,55.05h-.13a2.24,2.24,0,0,0-.73,0l-.19.1a1.47,1.47,0,0,1-.78.27h-.33c0-.39.06-3.89.06-4.23a1.31,1.31,0,0,1,0-.28c0-.41,0-.57-.78-.76a6.11,6.11,0,0,0-1.27-.2s-.52,0-.55.28.22.25.31.28c.31.1,1.18.56,1.18.72V56c-.3.07-1.22.32-2.23.5l-1.76.3V55a.56.56,0,0,0-.06-.47c-.09-.11-.27-.16-.57-.17H55.7c-.25,0-.5.11-.52.28s.09.2.3.24c.48.11.77.29.77.37V57c-.23,0-.65.09-1,.12a10.16,10.16,0,0,1-1.56,0c-.28-.06-.46,0-.51.12s0,.26.3.42a5.35,5.35,0,0,0,.86.35l.39.15a.75.75,0,0,0,.75-.05,1.71,1.71,0,0,1,.23-.13h0c.31-.06,2.58-.66,2.58-.66,1-.26,2.26-.66,2.85-.86l.26-.08v2c0,.64,0,1.21.41,1.21.54,0,.57-1.85.58-2.06s0-1.18,0-1.51h1.07a9.41,9.41,0,0,0,1.3,0c.41-.16.42-.4.4-.5A.55.55,0,0,0,64.59,55.05Z"/><path class="cls-1" d="M58.41,55.54h0c-.07.19,0,.27.06.29a.17.17,0,0,0,.1,0A.63.63,0,0,0,59,55.6a5.72,5.72,0,0,0,.64-1.48l.22-.76a1.59,1.59,0,0,1,.15-.5,1.69,1.69,0,0,1,.13-.31c.09-.22.19-.42.09-.59s-.18-.15-.38-.17a4.12,4.12,0,0,0-.86,0,4.22,4.22,0,0,1-.86.17c-.36,0-.86.07-1.44.09h-.11a17.19,17.19,0,0,1-2,0c-.33-.07-.5,0-.56.09s.13.29.19.34a5.77,5.77,0,0,0,1.07.41.89.89,0,0,0,.66-.07l.29-.08h.11a5.1,5.1,0,0,0,.86-.09l1.72-.11a13.25,13.25,0,0,1-.12,1.33A10.78,10.78,0,0,1,58.41,55.54Z"/><path class="cls-1" d="M22.63,58.87l.12.12c.06,0,.06,0-.06.19A11.7,11.7,0,0,1,19,62.1c-.26.14-.28.15-.28.24a.15.15,0,0,0,.15.15,1.8,1.8,0,0,0,.39-.08,10.11,10.11,0,0,0,4.3-2.59l2.89,2.25c.16.12.24.19.39.19a.34.34,0,0,0,.35-.34s0,0,0,0a1.7,1.7,0,0,0-.74-1.11,1.41,1.41,0,0,0-.66-.26,1.66,1.66,0,0,1-.65-.21l-1.27-.88a.62.62,0,0,0,.07-.23.29.29,0,0,0-.16-.26l-.2-.18"/><path class="cls-1" d="M22.62,57.76H24c.5,0,.68-.23.68-.41s-.18-.34-.49-.34c-.75,0-1.49-.08-2.22-.17-.37-.05-.53-.06-.58.06s0,.22.27.44A1.46,1.46,0,0,0,22.62,57.76Z"/><path class="cls-1" d="M17,52.84c.17,0,.82.29.86.5v2.44a1.47,1.47,0,0,0,.56,1.15c.23.1,1.13-.09,3.21-.69A18.34,18.34,0,0,0,25,54.94V56c0,.64,0,1.06.21,1.21a.27.27,0,0,0,.19.08h0c.37,0,.56-.66.64-2.08h.5a16.37,16.37,0,0,0,1.72-.11.44.44,0,0,0,.38-.46.53.53,0,0,0-.42-.48s-.94-.1-1.23.2a1.55,1.55,0,0,1-1,.28h0V51.54a1.71,1.71,0,0,1,0-.32c0-.37,0-.56-.61-.74A10.49,10.49,0,0,0,24,50.16c-.1,0-.53,0-.56.26s.21.25.3.29,1.12.53,1.13.7v3.08a17,17,0,0,1-3.34,1,11.24,11.24,0,0,1-2.65.39,1,1,0,0,1,0-.25V53.09h.28l.95-.05,1.34-.13.86-.08c.34-.07.46-.26.45-.42a.57.57,0,0,0-.53-.39,1.64,1.64,0,0,0-1.15.16,2.74,2.74,0,0,1-1.31.3h0a4,4,0,0,1-1,0,7.61,7.61,0,0,0-1.72-.17c-.19,0-.47.13-.48.31S16.93,52.82,17,52.84Z"/><path class="cls-1" d="M23.9,58.78h2.54c.46,0,.68-.19.69-.39s-.22-.49-.76-.54a1.45,1.45,0,0,0-1,.14,1.05,1.05,0,0,1-.49.13l-2.28.18a13.91,13.91,0,0,1-3.16,0c-.31-.06-.42,0-.45.08s0,.27.23.4a9.41,9.41,0,0,0,1,.47h.18a.88.88,0,0,0,.35-.1,2,2,0,0,1,.62-.16l1.39-.15Z"/></svg>